User Type,Username,Date,Text
,phorensic,2011-05-08T20:13Z,"Files in the torrent don't match the description.  There are 5 MKV's instead of 2 AVI's.  Also, the resolution in the description isn't even close to 720p, not even 540p!  Anyone completed the download and can confirm quality?"
,raymond_u,2011-05-08T20:53Z,Will the forum be coming up?
,giffo5,2011-05-08T21:32Z,"Thank you soooo much for the hard work .... Unlike other people i dont care how they are filed... i dont care how they are descripted ... i dont care how many files are on there... and i really dont care about the quality ! ... i would rather watch the BBC coverage in Black and white than have to put up with Fucking Speed's Crap shite pile of wank that they put out every race ! ....
THANK YOU AGAIN SO MUCH FOR ALL THE HARD WORK ....

"" not even close to 720P....??? "" Get a fucking life and upload the shit yourself then ! 

Keep up the great work SAFCuko09 your a star!
Dont let ANYONE piss you off by bitching about the quality or quantity or timing of your hard work for free ! "
[V],SAFCukO09,2011-05-08T22:14Z,Doesnt take a genius to figure out i used wrong nfo by accident ......... Be assured its 720p
[T],V100,2011-05-08T23:33Z,"Viscerally, can you even stand with both feet up your own ass??

Thank you SAFCukO09 for the race."
,kanevolfeed,2011-05-09T03:34Z,Thanks man for the race!! n_________N
,phorensic,2011-05-09T05:32Z,"Instead of bitching at each other, I'll comment on the quality to help other people determine if it's a nice HD rip worth their time.

Format                           : Matroska
File size                        : 1.17 GiB
Duration                         : 43mn 50s
Overall bit rate                 : 3 820 Kbps
Encoded date                     : UTC 2011-05-08 13:27:07
Writing application              : mkvmerge v3.1.0 ('Happy up here') built on Jan 19 2010 12:09:24
Writing library                  : libebml v0.7.9 + libmatroska v0.8.1

Video
ID                               : 1
Format                           : AVC
Format/Info                      : Advanced Video Codec
Format profile                   : High@L4.1
Format settings, CABAC           : No
Format settings, ReFrames        : 4 frames
Muxing mode                      : Container profile=Unknown@4.1
Codec ID                         : V_MPEG4/ISO/AVC
Duration                         : 43mn 50s
Bit rate                         : 3 500 Kbps
Width                            : 1 280 pixels
Height                           : 720 pixels
Display aspect ratio             : 16:9
Frame rate                       : 25.000 fps
Color space                      : YUV
Chroma subsampling               : 4:2:0
Bit depth                        : 8 bits
Scan type                        : Progressive
Bits/(Pixel*Frame)               : 0.152
Stream size                      : 1.05 GiB (90%)
Title                            : thebox.hannibal
Writing library                  : x264 core 114 r1924 08d04a4
Encoding settings                : cabac=0 / ref=3 / deblock=0:0:0 / analyse=0x3:0x113 / me=hex / subme=7 / psy=1 / psy_rd=1.00:0.00 / mixed_ref=1 / me_range=16 / chroma_me=1 / trellis=1 / 8x8dct=1 / cqm=0 / deadzone=21,11 / fast_pskip=1 / chroma_qp_offset=-2 / threads=6 / sliced_threads=0 / nr=0 / decimate=1 / interlaced=0 / constrained_intra=0 / bframes=3 / b_pyramid=2 / b_adapt=1 / b_bias=0 / direct=1 / weightb=0 / open_gop=0 / weightp=0 / keyint=250 / keyint_min=25 / scenecut=40 / intra_refresh=0 / rc_lookahead=40 / rc=abr / mbtree=1 / bitrate=3500 / ratetol=1.0 / qcomp=0.60 / qpmin=0 / qpmax=51 / qpstep=4 / ip_ratio=1.40 / aq=1:1.00

Audio #1
ID                               : 2
Format                           : AC-3
Format/Info                      : Audio Coding 3
Mode extension                   : CM (complete main)
Codec ID                         : A_AC3
Duration                         : 43mn 50s
Bit rate mode                    : Constant
Bit rate                         : 192 Kbps
Channel(s)                       : 2 channels
Channel positions                : Front: L R
Sampling rate                    : 48.0 KHz
Bit depth                        : 16 bits
Stream size                      : 60.2 MiB (5%)
Title                            : BBC1
Language                         : English

Audio #2
ID                               : 3
Format                           : AC-3
Format/Info                      : Audio Coding 3
Mode extension                   : CM (complete main)
Codec ID                         : A_AC3
Duration                         : 43mn 50s
Bit rate mode                    : Constant
Bit rate                         : 128 Kbps
Channel(s)                       : 2 channels
Channel positions                : Front: L R
Sampling rate                    : 48.0 KHz
Bit depth                        : 16 bits
Video delay                      : 3s 0ms
Stream size                      : 40.1 MiB (3%)
Title                            : R5
Language                         : English

"
,il_grammo,2011-05-09T10:25Z,"Phorensic, you should just be grateful, as I am, that SAFCuk009 has gone to the trouble to give us the F1. Where I live the local F1 coverage is awful. I’ve been following F1 for 30yrs and I have never enjoyed it as much as I do now with the BBC coverage. There are 19 races this year, that’s 38 feeds to record, prepare and post. It’s a lot of work. Would you go to the trouble of doing this? And you will probably complain when you can’t find what you want free on the net. So from the people who do appreciate the generosity of people like SAFCuk009,  Phorensic shut the fuck up!"
,kanevolfeed,2011-05-09T13:48Z,"It's exactly how Il grammo said!!!  u__u He's doing a great work...We have to be thankful for his hard work, because It's not that easy!!"
